<svg xmlns="http://www.w3.org/2000/svg" id="Layer_1" viewBox="0 0 203 26"><defs><style>      .st0, .st1 {        fill: #c41f44;      }      .st1 {        fill-rule: evenodd;      }    </style></defs><path class="st0" d="M199.52,22.6c0,.76-.27,1.42-.8,1.95-.53.54-1.18.8-1.94.8s-1.41-.27-1.94-.81c-.53-.54-.8-1.19-.8-1.95,0-.42.09-.81.26-1.16.18-.37.42-.69.73-.95.51-.42,1.09-.63,1.72-.63.42,0,.8.08,1.15.24.49.21.88.55,1.17,1.01.3.46.45.96.45,1.49M196.76,20.25c-.63,0-1.16.23-1.61.69-.45.46-.67,1.01-.67,1.65s.22,1.21.67,1.67c.45.46.99.69,1.63.69s1.17-.23,1.62-.69c.45-.46.67-1.02.67-1.67,0-.35-.09-.71-.26-1.08-.17-.35-.4-.63-.69-.83-.4-.29-.86-.43-1.36-.43M197.05,22.86l1.03,1.32h-.74l-.94-1.26v1.26h-.61v-3.17h.63c.44,0,.77.08.97.24.23.18.34.42.34.71,0,.2-.06.38-.18.55-.12.16-.28.27-.46.33h-.04ZM196.4,22.43h.1c.43,0,.65-.15.65-.45,0-.28-.21-.42-.63-.42h-.12v.87Z"></path><polygon class="st1" points="199.42 .45 176.79 .45 176.79 5.16 185.34 5.16 185.34 25.4 190.87 25.4 190.87 5.16 199.42 5.16 199.42 .45"></polygon><path class="st0" d="M135.98.38c-7.64,0-13.83,5.68-13.83,12.69s6.19,12.69,13.83,12.69,13.82-5.68,13.82-12.69S143.62.38,135.98.38M135.98,20.99c-4.77,0-8.63-3.54-8.63-7.92s3.86-7.92,8.63-7.92,8.62,3.54,8.62,7.92-3.86,7.92-8.62,7.92"></path><path class="st1" d="M24.32,25.38l-6.36-8.93c2.57-1.04,5.19-3.16,5.19-7.47C23.14.45,15.16.45,13.03.45H3.48v24.93h5.54v-7.93h3.23s5.71,7.93,5.71,7.93h6.36ZM9.02,5.13h4.95c.68,0,3.99,0,3.99,3.85s-3.31,3.86-3.99,3.86h-4.94v-7.71Z"></path><path class="st0" d="M39.69.45h-2.14l-11.37,24.94h5.63l2.24-5.18h9.02l2.23,5.18h5.77L39.69.45ZM38.61,9.78l2.54,5.93h-5.12l2.58-5.93Z"></path><path class="st1" d="M63.32,17.45h-4.02s0,7.92,0,7.92h-5.54V.45h9.56c2.12,0,10.11,0,10.11,8.52s-10.11,8.48-10.11,8.48M64.24,5.13h-4.95v7.71h4.94c.68,0,3.99,0,3.99-3.86s-3.31-3.85-3.99-3.85"></path><path class="st1" d="M109.09,17.45h-4.02s0,7.92,0,7.92h-5.54V.45h9.56c2.12,0,10.11,0,10.11,8.52s-10.1,8.48-10.1,8.48M110.02,5.13h-4.95v7.71h4.94c.68,0,3.99,0,3.99-3.86s-3.31-3.85-3.99-3.85"></path><path class="st1" d="M175.65,25.38l-6.36-8.94c2.57-1.04,5.19-3.16,5.19-7.47,0-8.52-7.98-8.52-10.11-8.52h-9.56v24.92h5.54v-7.92h3.23s5.71,7.95,5.71,7.95h6.36ZM160.35,5.13h4.95c.68,0,3.99,0,3.99,3.85s-3.31,3.86-3.99,3.86h-4.94v-7.71Z"></path><path class="st0" d="M85.42.45h-2.14l-11.37,24.94h5.63l2.24-5.18h9.02l2.23,5.18h5.77L85.42.45ZM84.35,9.78l2.53,5.93h-5.12l2.59-5.93Z"></path></svg>